<?xml version="1.0" encoding="UTF-8"?><svg id="Layer_1" xmlns="http://www.w3.org/2000/svg" viewBox="0 0 60 60"><defs><style>.cls-1{fill-rule:evenodd;}.cls-1,.cls-2{fill:#fff;}.cls-3{fill:#1451a0;}</style></defs><g id="Layer_2"><ellipse class="cls-3" cx="29.89" cy="30" rx="29.89" ry="30"/></g><g id="Layer_1-2"><path class="cls-1" d="M24.18,21.29c0,1.63-1.32,2.94-2.95,2.94s-2.95-1.31-2.95-2.94,1.32-2.94,2.95-2.94,2.95,1.32,2.95,2.94ZM29.95,19.43c-1.03,0-1.87.83-1.87,1.86s.84,1.86,1.87,1.86,1.87-.83,1.87-1.86-.84-1.86-1.87-1.86ZM48.69,46.75c-1.03,0-1.87.83-1.87,1.86s.84,1.86,1.87,1.86,1.87-.83,1.87-1.86-.84-1.86-1.87-1.86ZM38.69,18.35c-1.63,0-2.95,1.32-2.95,2.94s1.32,2.94,2.95,2.94,2.95-1.31,2.95-2.94-1.32-2.94-2.95-2.94ZM44,42.59c-.67,0-1.21.54-1.21,1.2s.54,1.2,1.21,1.2,1.21-.54,1.21-1.2-.54-1.2-1.21-1.2ZM15.54,14.91c-.67,0-1.21.54-1.21,1.2s.54,1.2,1.21,1.2,1.21-.54,1.21-1.2-.54-1.2-1.21-1.2ZM38.69,35.73c-1.63,0-2.95,1.32-2.95,2.94s1.32,2.94,2.95,2.94,2.95-1.32,2.95-2.94-1.32-2.94-2.95-2.94ZM48.69,12.93c1.03,0,1.87-.83,1.87-1.86s-.84-1.86-1.87-1.86-1.87.83-1.87,1.86.84,1.86,1.87,1.86ZM44,17.09c.67,0,1.21-.54,1.21-1.2s-.54-1.2-1.21-1.2-1.21.54-1.21,1.2.54,1.2,1.21,1.2ZM11.34,12.96c1.03,0,1.87-.83,1.87-1.86s-.84-1.86-1.87-1.86-1.87.83-1.87,1.86.84,1.86,1.87,1.86ZM21.23,35.73c-1.63,0-2.95,1.32-2.95,2.94s1.32,2.94,2.95,2.94,2.95-1.32,2.95-2.94-1.32-2.94-2.95-2.94ZM15.54,42.82c-.67,0-1.21.54-1.21,1.2s.54,1.2,1.21,1.2,1.21-.54,1.21-1.2-.54-1.2-1.21-1.2ZM29.95,6.48c-2.57,0-4.64,2.07-4.64,4.62s2.08,4.62,4.64,4.62,4.64-2.07,4.64-4.62-2.08-4.62-4.64-4.62ZM29.95,40.53c1.03,0,1.87-.83,1.87-1.86s-.84-1.86-1.87-1.86-1.87.83-1.87,1.86.84,1.86,1.87,1.86ZM11.34,46.78c-1.03,0-1.87.83-1.87,1.86s.84,1.86,1.87,1.86,1.87-.83,1.87-1.86-.84-1.86-1.87-1.86Z"/><path class="cls-2" d="M17.67,34.21v-8.05h3.54c.72,0,1.3.08,1.73.24s.78.41,1.02.75.37.69.37,1.06c0,.35-.11.67-.33.97-.22.3-.55.55-.99.74.57.14,1.01.39,1.32.73.31.35.46.75.46,1.22,0,.38-.09.73-.28,1.05-.19.33-.42.57-.69.75-.27.17-.62.31-1.03.4-.41.09-.92.13-1.52.13h-3.6ZM18.91,29.54h2.04c.55,0,.95-.03,1.19-.09.32-.08.56-.22.71-.4s.24-.42.24-.7-.07-.5-.22-.71-.36-.34-.64-.42c-.28-.07-.76-.11-1.43-.11h-1.88v2.43h0ZM18.91,33.26h2.34c.4,0,.69-.01.85-.04.29-.04.53-.12.72-.22.19-.1.35-.25.47-.45.12-.2.19-.42.19-.68,0-.3-.09-.56-.27-.78s-.43-.38-.75-.47c-.32-.09-.78-.13-1.38-.13h-2.18v2.77h0Z"/><path class="cls-2" d="M26.44,34.21v-8.05h1.16v3.31h4.57v-3.31h1.16v8.05h-1.16v-3.79h-4.57v3.79h-1.16Z"/><path class="cls-2" d="M35.21,34.21v-8.05h1.54l1.83,5.7c.17.53.29.93.37,1.19.09-.29.22-.72.41-1.29l1.85-5.6h1.38v8.05h-.98v-6.74l-2.25,6.74h-.92l-2.23-6.85v6.85h-.99Z"/><path class="cls-2" d="M8.63,34.21v-8.05h3.54c.72,0,1.3.08,1.73.24s.78.41,1.02.75.37.69.37,1.06c0,.35-.11.67-.33.97-.22.3-.55.55-.99.74.57.14,1.01.39,1.32.73.31.35.46.75.46,1.22,0,.38-.09.73-.28,1.05-.19.33-.42.57-.69.75-.27.17-.62.31-1.03.4-.41.09-.92.13-1.52.13h-3.6ZM9.87,29.54h2.04c.55,0,.95-.03,1.19-.09.32-.08.56-.22.71-.4s.24-.42.24-.7-.07-.5-.22-.71-.36-.34-.64-.42c-.28-.07-.76-.11-1.43-.11h-1.88v2.43h0ZM9.87,33.26h2.34c.4,0,.69-.01.85-.04.29-.04.53-.12.72-.22s.35-.25.47-.45c.12-.2.19-.42.19-.68,0-.3-.09-.56-.27-.78s-.43-.38-.75-.47c-.32-.09-.78-.13-1.38-.13h-2.18v2.77h0Z"/><path class="cls-2" d="M44.51,34.2v-8.05h1.54l1.83,5.7c.17.53.29.93.37,1.19.09-.29.22-.72.41-1.29l1.85-5.6h1.38v8.05h-.98v-6.74l-2.25,6.74h-.92l-2.23-6.85v6.85h-.99Z"/></g></svg>