<?xml version="1.0" encoding="UTF-8"?><svg id="Layer_1" xmlns="http://www.w3.org/2000/svg" viewBox="0 0 179.32 180"><defs><style>.cls-1{fill-rule:evenodd;}.cls-1,.cls-2{fill:#fff;}.cls-3{fill:#1451a0;}</style></defs><g id="Layer_2"><ellipse class="cls-3" cx="89.66" cy="90" rx="89.66" ry="90"/></g><g id="Layer_1-2"><path class="cls-1" d="M72.54,63.87c0,4.88-3.97,8.82-8.86,8.82s-8.86-3.94-8.86-8.82,3.96-8.82,8.86-8.82,8.86,3.95,8.86,8.82ZM89.86,58.3c-3.1,0-5.6,2.5-5.6,5.57s2.51,5.59,5.6,5.59,5.61-2.5,5.61-5.59-2.51-5.57-5.61-5.57ZM146.08,140.25c-3.1,0-5.6,2.5-5.6,5.59s2.51,5.59,5.6,5.59,5.61-2.5,5.61-5.59-2.51-5.59-5.61-5.59ZM116.07,55.05c-4.89,0-8.86,3.95-8.86,8.82s3.97,8.82,8.86,8.82,8.86-3.94,8.86-8.82-3.96-8.82-8.86-8.82ZM131.99,127.78c-2.01,0-3.63,1.61-3.63,3.61s1.63,3.61,3.63,3.61,3.63-1.61,3.63-3.61-1.63-3.61-3.63-3.61ZM46.62,44.72c-2,0-3.63,1.61-3.63,3.61s1.63,3.61,3.63,3.61,3.63-1.61,3.63-3.61-1.63-3.61-3.63-3.61ZM116.07,107.19c-4.89,0-8.86,3.95-8.86,8.83s3.97,8.82,8.86,8.82,8.86-3.95,8.86-8.82-3.96-8.83-8.86-8.83ZM146.08,38.79c3.1,0,5.61-2.5,5.61-5.59s-2.51-5.59-5.61-5.59-5.6,2.5-5.6,5.59,2.51,5.59,5.6,5.59ZM131.99,51.27c2,0,3.63-1.61,3.63-3.61s-1.63-3.61-3.63-3.61-3.63,1.61-3.63,3.61,1.63,3.61,3.63,3.61ZM34.03,38.88c3.1,0,5.61-2.5,5.61-5.59s-2.51-5.59-5.61-5.59-5.6,2.5-5.6,5.59,2.51,5.59,5.6,5.59ZM63.68,107.19c-4.9,0-8.86,3.95-8.86,8.83s3.96,8.82,8.86,8.82,8.86-3.95,8.86-8.82-3.97-8.83-8.86-8.83ZM46.62,128.45c-2,0-3.63,1.61-3.63,3.61s1.63,3.61,3.63,3.61,3.63-1.61,3.63-3.61-1.63-3.61-3.63-3.61ZM89.86,19.43c-7.7,0-13.93,6.21-13.93,13.87s6.24,13.87,13.93,13.87,13.93-6.21,13.93-13.87-6.24-13.87-13.93-13.87ZM89.86,121.59c3.1,0,5.61-2.5,5.61-5.57s-2.51-5.59-5.61-5.59-5.6,2.5-5.6,5.59,2.51,5.57,5.6,5.57ZM34.03,140.34c-3.1,0-5.6,2.5-5.6,5.59s2.51,5.59,5.6,5.59,5.61-2.5,5.61-5.59-2.51-5.59-5.61-5.59Z"/><path class="cls-2" d="M53.01,102.62v-24.14h10.61c2.16,0,3.9.24,5.2.73s2.33,1.24,3.06,2.26,1.1,2.07,1.1,3.18c0,1.04-.33,2-.98,2.91-.66.91-1.64,1.65-2.97,2.21,1.72.43,3.03,1.16,3.95,2.2.92,1.04,1.38,2.26,1.38,3.66,0,1.13-.28,2.18-.83,3.16-.56.98-1.25,1.72-2.07,2.24-.82.52-1.85.93-3.1,1.2-1.24.27-2.76.4-4.56.4h-10.8ZM56.74,88.63h6.12c1.65,0,2.84-.1,3.57-.28.96-.24,1.67-.65,2.14-1.21s.72-1.27.72-2.11-.22-1.51-.67-2.12-1.09-1.02-1.92-1.26c-.83-.22-2.27-.34-4.3-.34h-5.65v7.32ZM56.74,99.77h7.03c1.21,0,2.06-.04,2.55-.11.86-.13,1.58-.35,2.16-.66.58-.3,1.05-.76,1.42-1.34.37-.59.56-1.27.56-2.04,0-.9-.27-1.68-.81-2.34s-1.29-1.13-2.24-1.4c-.96-.27-2.34-.4-4.14-.4h-6.54v8.31h.01Z"/><path class="cls-2" d="M79.31,102.62v-24.14h3.49v9.92h13.71v-9.92h3.49v24.14h-3.49v-11.38h-13.71v11.38h-3.49Z"/><path class="cls-2" d="M105.62,102.62v-24.14h4.62l5.49,17.1c.5,1.6.87,2.78,1.1,3.57.27-.88.67-2.17,1.24-3.87l5.55-16.79h4.13v24.14h-2.95v-20.21l-6.74,20.21h-2.77l-6.7-20.55v20.55h-2.97Z"/><path class="cls-2" d="M25.88,102.62v-24.14h10.61c2.16,0,3.9.24,5.2.73s2.33,1.24,3.06,2.26,1.1,2.07,1.1,3.18c0,1.04-.33,2-.98,2.91-.66.91-1.64,1.65-2.97,2.21,1.72.43,3.03,1.16,3.95,2.2.92,1.04,1.38,2.26,1.38,3.66,0,1.13-.28,2.18-.83,3.16-.56.98-1.25,1.72-2.07,2.24-.82.52-1.85.93-3.1,1.2-1.24.27-2.76.4-4.56.4h-10.8ZM29.62,88.63h6.12c1.65,0,2.84-.1,3.57-.28.96-.24,1.67-.65,2.14-1.21s.72-1.27.72-2.11-.22-1.51-.67-2.12-1.09-1.02-1.92-1.26c-.83-.22-2.27-.34-4.3-.34h-5.65v7.32ZM29.62,99.77h7.03c1.21,0,2.06-.04,2.55-.11.86-.13,1.58-.35,2.16-.66s1.05-.76,1.42-1.34c.37-.59.56-1.27.56-2.04,0-.9-.27-1.68-.81-2.34s-1.29-1.13-2.24-1.4c-.96-.27-2.34-.4-4.14-.4h-6.54v8.31h.01Z"/><path class="cls-2" d="M133.54,102.6v-24.14h4.62l5.49,17.1c.5,1.6.87,2.78,1.1,3.57.27-.88.67-2.17,1.24-3.87l5.55-16.79h4.13v24.14h-2.95v-20.21l-6.74,20.21h-2.77l-6.7-20.55v20.55h-2.97Z"/></g></svg>